Format                                   : Matroska
Format version                           : Version 2
File size                                : 897 MiB
Duration                                 : 1h 51mn
Overall bit rate                         : 1 122 Kbps
Movie name                               : Shirin Farhad Ki Toh Nikal Padi (2012).720p.DVDRip.6Ch.By K@rtik [EXD ExclusivE]

Codec ID                                 : V_MPEG4/ISO/AVC
Duration                                 : 1h 51mn
Bit rate                                 : 897 Kbps
Width                                    : 1 280 pixels
Height                                   : 544 pixels
Display aspect ratio                     : 2.35:1
Frame rate                               : 23.976 fps
Color space                              : YUV
Chroma subsampling                       : 4:2:0
Bit depth                                : 8 bits
Scan type                                : Progressive
Bits/(Pixel*Frame)                       : 0.054
Stream size                              : 700 MiB (78%)
Title                                    : K@rtik

Codec ID                                 : A_AC3
Duration                                 : 1h 51mn
Bit rate mode                            : Constant
Bit rate                                 : 224 Kbps
Channel(s)                               : 6 channels
Channel positions                        : Front: L C R, Side: L R, LFE
Sampling rate                            : 48.0 KHz
Bit depth                                : 16 bits
Compression mode                         : Lossy
Stream size                              : 179 MiB (20%)
Title                                    : K@rtik
Language                                 : Hindi
 
http://imageshack.us/a/img822/4555/61095148.png 
http://imageshack.us/a/img526/996/45283546.png 
http://imageshack.us/a/img94/3497/65744628.png 
http://imageshack.us/a/img28/3314/40264978.png 
http://imageshack.us/a/img684/7364/53193148.png 
http://imageshack.us/a/img821/1470/73220648.png 
http://imageshack.us/a/img405/8915/63429266.png 
http://imageshack.us/a/img707/4498/48737607.png 
http://imageshack.us/a/img18/1994/89426493.png


